<svg xmlns="http://www.w3.org/2000/svg" viewBox="0 0 96 96"><circle cx="48" cy="48" r="40" fill="#18271f" stroke="#a3e6ff" stroke-opacity=".25"/><g fill="none" stroke="#121b19" stroke-width="9" stroke-linecap="round" stroke-linejoin="round"><path d="M15 56h30m-8-8 8 8-8 8M53 24v44m-19-33 38 22M34 57l38-22M45 28l8 8 8-8M45 64l8-8 8 8"/></g><g fill="none" stroke="#a3e6ff" stroke-width="3.5" stroke-linecap="round" stroke-linejoin="round"><path d="M15 56h30m-8-8 8 8-8 8M53 24v44m-19-33 38 22M34 57l38-22M45 28l8 8 8-8M45 64l8-8 8 8"/></g></svg>